<svg width="200" height="66" viewBox="0 0 251 83" fill="none" xmlns="http://www.w3.org/2000/svg">
<path d="M5.89356 53.6839V30.324H0.00585938V18.3724H5.89356V5.77472H19.8714V18.3724H31.4559V30.324H19.8714V51.3934C19.8714 54.6089 21.2515 56.18 24.3789 56.18C26.9484 56.18 29.2535 55.5339 31.2797 54.4327V65.6502C28.3285 67.3974 24.9368 68.4986 20.2384 68.4986C11.6932 68.4986 5.89356 65.0923 5.89356 53.6839Z" fill="url(#paint0_linear_11_2)"/>
<path d="M104.193 0.518372H118.171V36.2998L134.542 18.3577H151.28L132.516 37.768L151.926 67.6617H135.922L123.046 47.5173L118.171 52.6708V67.6617H104.193V0.518372Z" fill="url(#paint1_linear_11_2)"/>
<path d="M150.282 43.2887V43.0978C150.282 29.0172 160.31 17.4327 174.655 17.4327C191.114 17.4327 198.661 30.2212 198.661 44.199C198.661 45.3002 198.573 46.5922 198.47 47.8696H164.157C165.537 54.2125 169.956 57.5308 176.211 57.5308C180.91 57.5308 184.301 56.0625 188.163 52.4653L196.165 59.5423C191.569 65.2391 184.947 68.7482 176.02 68.7482C161.235 68.7776 150.282 58.3823 150.282 43.2887ZM185.065 39.1482C184.243 32.8934 180.557 28.6648 174.67 28.6648C168.87 28.6648 165.097 32.8053 163.995 39.1482H185.065Z" fill="url(#paint2_linear_11_2)"/>
<path d="M202.449 79.261L207.148 69.1447C208.983 70.2459 211.288 71.0828 213.123 71.0828C215.517 71.0828 216.809 70.3486 217.998 67.8673L198.676 18.3724H213.49L224.708 51.9514L235.47 18.3724H250.006L231.051 68.8804C227.277 78.9086 223.24 82.682 214.856 82.682C209.805 82.6673 206.032 81.3752 202.449 79.261Z" fill="url(#paint3_linear_11_2)"/>
<path d="M67.1932 19.5323C67.2079 19.1065 67.2519 18.666 67.2226 18.2402C67.1785 17.5501 66.8555 17.2271 66.1801 17.2712C65.0202 17.3593 63.8603 17.4474 62.7297 17.6823C60.6595 18.1081 58.648 18.7541 56.7392 19.6497C54.067 20.9124 51.6297 22.5275 49.4567 24.539C47.8122 26.0807 46.4614 27.872 45.3162 29.8101C44.4352 31.3077 43.7305 32.8934 43.1579 34.5379C42.7174 35.8299 42.3797 37.1367 42.1007 38.4728C41.7483 40.1466 41.5721 41.8351 41.5721 43.5383C41.5721 45.7994 41.9392 48.0311 42.5706 50.2188C42.9229 51.4228 43.4515 51.8633 44.6849 51.8633C46.3293 51.8633 47.9737 51.8633 49.6329 51.8633C51.4095 51.8633 53.1861 51.878 54.9626 51.8633C55.9317 51.8486 56.1813 51.4228 55.7261 50.5859C55.6527 50.4391 55.5646 50.2922 55.4765 50.1454C54.4928 48.545 53.8761 46.7831 53.6853 44.9478C53.421 42.2462 53.788 39.6327 54.9773 37.1367C56.6218 33.701 59.2353 31.3811 62.7884 30.0597C63.8603 29.6633 64.9761 29.443 66.1067 29.2815C66.8996 29.164 67.3254 28.7236 67.3254 28.0482C67.3107 27.5783 67.2519 27.1232 67.2226 26.6533C67.0757 24.2748 67.0758 21.8962 67.1932 19.5323Z" fill="url(#paint4_linear_11_2)"/>
<path d="M83.623 34.4498C82.3163 34.4938 80.9948 34.3617 79.7028 34.5526C79.0861 34.6407 78.954 34.8462 79.1889 35.4188C79.4825 36.0942 79.7909 36.7403 80.1286 37.3863C81.3032 39.6768 81.5381 42.1288 81.3472 44.6542C81.2445 45.9316 80.9214 47.1502 80.4222 48.3395C79.4238 50.7034 77.8821 52.6415 75.8706 54.2272C74.0059 55.6955 71.8623 56.547 69.5718 57.0022C68.2651 57.2665 68.0008 57.4867 68.0155 58.8375C68.0301 60.4086 68.0889 61.9796 68.0889 63.5506C68.0889 64.828 68.0155 66.0907 68.0155 67.3681C68.0008 68.6602 68.3385 68.9832 69.6012 68.9538C71.5833 68.9098 73.4921 68.484 75.3567 67.8526C78.6897 66.7514 81.7583 65.151 84.4599 62.8899C87 60.7756 88.9675 58.2209 90.4504 55.3137C92.1242 52.4506 92.873 49.3673 93.1961 46.9006C93.3722 45.682 93.4603 44.4486 93.4457 43.2006C93.4457 40.6899 93.1373 38.2526 92.4326 35.8446C92.1536 34.8756 91.6103 34.4792 90.5826 34.4645" fill="url(#paint5_linear_11_2)"/>
<path d="M57.356 68.6161C60.7536 68.6161 63.508 65.8617 63.508 62.4641C63.508 59.0664 60.7536 56.3121 57.356 56.3121C53.9583 56.3121 51.204 59.0664 51.204 62.4641C51.204 65.8617 53.9583 68.6161 57.356 68.6161Z" fill="url(#paint6_linear_11_2)"/>
<path d="M76.4139 29.5898C79.6332 29.5898 82.2429 26.9801 82.2429 23.7609C82.2429 20.5416 79.6332 17.9319 76.4139 17.9319C73.1947 17.9319 70.585 20.5416 70.585 23.7609C70.585 26.9801 73.1947 29.5898 76.4139 29.5898Z" fill="url(#paint7_linear_11_2)"/>
<defs>
<linearGradient id="paint0_linear_11_2" x1="-0.0891368" y1="37.1287" x2="250.553" y2="37.1287" gradientUnits="userSpaceOnUse">
<stop stop-color="#0458A0"/>
<stop offset="1" stop-color="#232463"/>
</linearGradient>
<linearGradient id="paint1_linear_11_2" x1="-0.0891141" y1="34.0933" x2="250.553" y2="34.0933" gradientUnits="userSpaceOnUse">
<stop stop-color="#0458A0"/>
<stop offset="1" stop-color="#232463"/>
</linearGradient>
<linearGradient id="paint2_linear_11_2" x1="-0.0892224" y1="43.1081" x2="250.553" y2="43.1081" gradientUnits="userSpaceOnUse">
<stop stop-color="#0458A0"/>
<stop offset="1" stop-color="#232463"/>
</linearGradient>
<linearGradient id="paint3_linear_11_2" x1="-0.0890983" y1="50.5132" x2="250.553" y2="50.5132" gradientUnits="userSpaceOnUse">
<stop stop-color="#0458A0"/>
<stop offset="1" stop-color="#232463"/>
</linearGradient>
<linearGradient id="paint4_linear_11_2" x1="-0.08918" y1="34.5674" x2="250.553" y2="34.5674" gradientUnits="userSpaceOnUse">
<stop stop-color="#0458A0"/>
<stop offset="1" stop-color="#232463"/>
</linearGradient>
<linearGradient id="paint5_linear_11_2" x1="-0.0891773" y1="51.7008" x2="250.553" y2="51.7008" gradientUnits="userSpaceOnUse">
<stop stop-color="#0458A0"/>
<stop offset="1" stop-color="#232463"/>
</linearGradient>
<linearGradient id="paint6_linear_11_2" x1="-0.0891155" y1="62.461" x2="250.553" y2="62.461" gradientUnits="userSpaceOnUse">
<stop stop-color="#0458A0"/>
<stop offset="1" stop-color="#232463"/>
</linearGradient>
<linearGradient id="paint7_linear_11_2" x1="-0.0891384" y1="23.7592" x2="250.553" y2="23.7592" gradientUnits="userSpaceOnUse">
<stop stop-color="#0458A0"/>
<stop offset="1" stop-color="#232463"/>
</linearGradient>
</defs>
</svg>
