<svg width="343" height="85" viewBox="0 0 343 85" fill="none" xmlns="http://www.w3.org/2000/svg">
<path fill-rule="evenodd" clip-rule="evenodd" d="M58.1518 44.1277C60.6046 44.1277 62.6003 42.0876 62.6003 39.5798V31.8989C62.6003 14.3448 48.6314 0.0638428 31.4614 0.0638428C14.2915 0.0638428 0.322418 14.345 0.322418 31.8989C0.322418 32.7361 0.986305 33.4148 1.80518 33.4148C2.62406 33.4148 3.28795 32.7361 3.28795 31.8989C3.28795 16.0166 15.9263 3.09568 31.4612 3.09568C46.9962 3.09568 59.6345 16.0166 59.6345 31.8989V39.5798C59.6345 40.4158 58.9694 41.0957 58.1518 41.0957C57.334 41.0957 56.669 40.4157 56.669 39.5798V31.8989C56.669 17.6886 45.361 6.12752 31.4612 6.12752C17.5615 6.12752 6.25349 17.6884 6.25349 31.8989V48.0691C6.25349 63.9513 18.8919 76.8723 34.4268 76.8723C49.9617 76.8723 62.6001 63.9513 62.6001 48.0691C62.6001 47.2319 61.9364 46.5532 61.1173 46.5532C60.2982 46.5532 59.6345 47.2319 59.6345 48.0691C59.6345 62.2796 48.3265 73.8404 34.4268 73.8404C20.5271 73.8404 9.21902 62.2796 9.21902 48.0691V31.8989C9.21902 19.3604 19.1968 9.15954 31.4611 9.15954C43.7252 9.15954 53.7031 19.3604 53.7031 31.8989V39.5798C53.7033 42.0876 55.699 44.1277 58.1518 44.1277ZM12.1847 31.8998C12.1847 21.0323 20.8322 12.1916 31.4613 12.1916C42.0904 12.1916 50.7378 21.0321 50.7371 31.8989V48.0691C50.7371 57.264 43.42 64.7445 34.4263 64.7445C25.4324 64.7445 18.1154 57.264 18.1154 48.0691V31.8989C18.1154 24.3757 24.1021 18.2552 31.4607 18.2552C38.8194 18.2552 44.806 24.3757 44.806 31.8989C44.806 32.736 44.1423 33.4148 43.3232 33.4148C42.5042 33.4148 41.8405 32.736 41.8405 31.8989C41.8405 26.0476 37.1842 21.2872 31.4609 21.2872C25.7376 21.2872 21.0813 26.0475 21.0813 31.8989V48.0691C21.0813 55.5923 27.0679 61.7127 34.4266 61.7127C41.7853 61.7127 47.7719 55.5923 47.7719 48.0691V31.8989C47.7719 22.7039 40.4548 15.2234 31.4611 15.2234C22.4672 15.2234 15.1503 22.7039 15.1503 31.8989L15.1564 42.5112C15.1568 43.3486 14.4935 44.0277 13.6737 44.0281C12.855 44.0281 12.1913 43.3499 12.1909 42.5129L12.1847 31.8998ZM41.841 37.9627C41.841 37.1255 42.5047 36.4468 43.3238 36.4468C44.1428 36.4468 44.8065 37.1255 44.8071 37.9627V48.0691C44.8071 53.9205 40.1508 58.6809 34.4275 58.6809C28.7041 58.6809 24.0478 53.9205 24.0478 48.0691V31.8989C24.0478 27.7192 27.3736 24.3191 31.4618 24.3191C35.55 24.3191 38.8758 27.7192 38.8758 31.8989V48.0691C38.8758 50.5769 36.8802 52.617 34.4273 52.617C31.9745 52.617 29.9789 50.5769 29.9789 48.0691V31.8989C29.9789 31.0617 30.6427 30.3829 31.4616 30.3829C32.2807 30.3829 32.9444 31.0617 32.9444 31.8989V48.0691C32.9444 48.905 33.6094 49.585 34.4272 49.585C35.2448 49.585 35.9099 48.9051 35.9099 48.0691V31.8989C35.9099 29.391 33.9143 27.3509 31.4614 27.3509C29.0084 27.3509 27.013 29.391 27.013 31.8989V48.0691C27.013 52.2487 30.3388 55.6488 34.427 55.6488C38.5152 55.6488 41.841 52.2487 41.841 48.0691V37.9627ZM3.28795 48.0693C3.28795 65.6231 17.2566 79.9043 34.4268 79.9043C35.2461 79.9043 35.9098 80.5832 35.9098 81.4204C35.9098 82.2576 35.2461 82.9363 34.427 82.9363C15.6216 82.9363 0.322418 67.2951 0.322418 48.0693V37.9629C0.322418 37.1257 0.986306 36.447 1.80519 36.447C2.62407 36.447 3.28795 37.1257 3.28795 37.9629V48.0693ZM55.1861 46.5532C54.367 46.5532 53.7033 47.2319 53.7033 48.0691C53.7033 58.9358 45.0559 67.7766 34.4268 67.7766C23.7977 67.7766 15.1503 58.936 15.1503 48.0691C15.1503 47.2319 14.4864 46.5532 13.6675 46.5532C12.8486 46.5532 12.1847 47.2319 12.1847 48.0691C12.1847 60.6076 22.1625 70.8084 34.4268 70.8084C46.6911 70.8084 56.6688 60.6076 56.6688 48.0691C56.669 47.2319 56.0053 46.5532 55.1861 46.5532ZM147.939 43.9741V40.3242C147.939 34.11 147.078 28.5322 145.356 23.5908C143.634 18.612 141.2 14.3818 138.056 10.9004C134.949 7.41893 131.243 4.76105 126.938 2.92674C122.633 1.055 117.879 0.119126 112.675 0.119126C107.472 0.119126 102.717 1.055 98.4124 2.92674C94.1073 4.76105 90.3826 7.41893 87.238 10.9004C84.1309 14.3818 81.7164 18.612 79.9944 23.5908C78.2724 28.5322 77.4114 34.11 77.4114 40.3242V43.9741C77.4114 50.1883 78.2724 55.7661 79.9944 60.7075C81.7164 65.6489 84.1497 69.8603 87.2942 73.3418C90.4762 76.8232 94.2196 79.4998 98.5247 81.3716C102.83 83.2059 107.584 84.123 112.787 84.123C117.991 84.123 122.726 83.2059 126.994 81.3716C131.299 79.4998 135.005 76.8232 138.112 73.3418C141.257 69.8603 143.671 65.6489 145.356 60.7075C147.078 55.7661 147.939 50.1883 147.939 43.9741ZM129.465 40.2119V43.9741C129.465 48.0919 129.09 51.7606 128.342 54.98C127.63 58.1619 126.563 60.8572 125.141 63.0659C123.718 65.2746 121.959 66.9404 119.863 68.0635C117.804 69.1865 115.445 69.748 112.787 69.748C110.017 69.748 107.584 69.1865 105.488 68.0635C103.429 66.9404 101.688 65.2746 100.265 63.0659C98.8429 60.8572 97.7572 58.1619 97.0085 54.98C96.2973 51.7606 95.9417 48.0919 95.9417 43.9741V40.2119C95.9417 36.0566 96.2973 32.388 97.0085 29.206C97.7572 25.9866 98.8241 23.2913 100.209 21.1201C101.632 18.9489 103.372 17.3205 105.431 16.2348C107.49 15.1118 109.905 14.5503 112.675 14.5503C115.333 14.5503 117.71 15.1118 119.806 16.2348C121.903 17.3205 123.662 18.9489 125.085 21.1201C126.507 23.2913 127.593 25.9866 128.342 29.206C129.09 32.388 129.465 36.0566 129.465 40.2119ZM174.443 83H168.771L153.835 22.2431H170.737L177.713 60.4642L188.088 22.2431H189.716H199.15H200.497L210.881 59.9452L217.848 22.2431H234.75L219.926 83H214.255H209.145H205.102L194.336 45.4234L183.483 83H179.552H174.443ZM259.457 39.9499V83H241.882V22.2431H258.39L258.976 29.361C259.061 29.2523 259.146 29.1444 259.233 29.0376C261.329 26.4546 263.818 24.4892 266.701 23.1416C269.621 21.7939 272.84 21.1201 276.359 21.1201C279.204 21.1201 281.806 21.5319 284.164 22.3555C286.523 23.179 288.544 24.508 290.229 26.3423C291.951 28.1391 293.261 30.535 294.159 33.5298C295.058 36.4871 295.507 40.137 295.507 44.4795V83H277.875V44.4233C277.875 41.8778 277.52 39.9124 276.808 38.5273C276.097 37.1422 275.049 36.1689 273.664 35.6074C272.316 35.0459 270.669 34.7651 268.722 34.7651C266.663 34.7651 264.904 35.1769 263.444 36.0005C261.984 36.7866 260.786 37.8909 259.85 39.3135C259.714 39.5204 259.583 39.7326 259.457 39.9499ZM324.538 43.796V83H307.018V22.2431H323.471L324.049 29.9056C324.242 29.5515 324.443 29.206 324.65 28.8691C326.148 26.3984 327.982 24.4892 330.153 23.1416C332.324 21.7939 334.795 21.1201 337.565 21.1201C338.464 21.1201 339.381 21.1763 340.317 21.2886C341.253 21.4009 342.039 21.5693 342.675 21.7939L342.394 38.1343C341.646 38.022 340.672 37.9284 339.474 37.8535C338.276 37.7412 337.247 37.685 336.386 37.685C334.14 37.685 332.193 37.9658 330.546 38.5273C328.936 39.0514 327.589 39.8376 326.503 40.8857C325.691 41.6983 325.035 42.6684 324.538 43.796Z" fill="white"/>
</svg>
