<svg width="143" height="35" viewBox="0 0 143 35" fill="none" xmlns="http://www.w3.org/2000/svg">
<path d="M24.0786 18.347C25.0999 18.347 25.9308 17.4976 25.9308 16.4534V13.2553C25.9308 5.94622 20.1146 0 12.9655 0C5.81634 0 0 5.9463 0 13.2553C0 13.6038 0.276425 13.8864 0.617384 13.8864C0.958344 13.8864 1.23477 13.6038 1.23477 13.2553C1.23477 6.64231 6.49705 1.26238 12.9654 1.26238C19.4337 1.26238 24.696 6.64231 24.696 13.2553V16.4534C24.696 16.8015 24.419 17.0846 24.0786 17.0846C23.7381 17.0846 23.4612 16.8014 23.4612 16.4534V13.2553C23.4612 7.33847 18.7528 2.52475 12.9654 2.52475C7.17791 2.52475 2.46954 7.33839 2.46954 13.2553V19.9881C2.46954 26.6011 7.73181 31.981 14.2001 31.981C20.6685 31.981 25.9308 26.6011 25.9308 19.9881C25.9308 19.6395 25.6544 19.3569 25.3134 19.3569C24.9723 19.3569 24.696 19.6395 24.696 19.9881C24.696 25.905 19.9876 30.7186 14.2001 30.7186C8.41268 30.7186 3.70431 25.905 3.70431 19.9881V13.2553C3.70431 8.03455 7.85877 3.7872 12.9653 3.7872C18.0718 3.7872 22.2263 8.03455 22.2263 13.2553V16.4534C22.2264 17.4976 23.0573 18.347 24.0786 18.347Z" fill="white"/>
<path d="M4.93915 13.2556C4.93915 8.73071 8.53971 5.04966 12.9654 5.04966C17.3911 5.04966 20.9916 8.73063 20.9913 13.2552V19.9881C20.9913 23.8166 17.9447 26.9313 14.1999 26.9313C10.4551 26.9313 7.40854 23.8166 7.40854 19.9881V13.2552C7.40854 10.1228 9.9012 7.57441 12.9652 7.57441C16.0291 7.57441 18.5218 10.1228 18.5218 13.2552C18.5218 13.6038 18.2454 13.8864 17.9044 13.8864C17.5633 13.8864 17.287 13.6038 17.287 13.2552C17.287 10.819 15.3482 8.83686 12.9652 8.83686C10.5822 8.83686 8.64346 10.8189 8.64346 13.2552V19.9881C8.64346 23.1205 11.1361 25.6689 14.2001 25.6689C17.264 25.6689 19.7567 23.1205 19.7567 19.9881V13.2552C19.7567 9.42671 16.71 6.31203 12.9653 6.31203C9.22049 6.31203 6.17392 9.42671 6.17392 13.2552L6.17649 17.674C6.17664 18.0226 5.90045 18.3054 5.55911 18.3055C5.21822 18.3055 4.94187 18.0232 4.94172 17.6746L4.93915 13.2556Z" fill="white"/>
<path d="M17.2872 15.7801C17.2872 15.4315 17.5636 15.1489 17.9046 15.1489C18.2456 15.1489 18.522 15.4315 18.5222 15.7801V19.9881C18.5222 22.4245 16.5835 24.4066 14.2005 24.4066C11.8174 24.4066 9.87861 22.4245 9.87861 19.9881V13.2553C9.87861 11.515 11.2634 10.0992 12.9656 10.0992C14.6678 10.0992 16.0526 11.515 16.0526 13.2553V19.9881C16.0526 21.0323 15.2217 21.8817 14.2004 21.8817C13.1791 21.8817 12.3481 21.0323 12.3481 19.9881V13.2553C12.3481 12.9067 12.6246 12.6241 12.9655 12.6241C13.3066 12.6241 13.5829 12.9067 13.5829 13.2553V19.9881C13.5829 20.3361 13.8598 20.6193 14.2003 20.6193C14.5407 20.6193 14.8177 20.3362 14.8177 19.9881V13.2553C14.8177 12.211 13.9867 11.3616 12.9655 11.3616C11.9441 11.3616 11.1132 12.211 11.1132 13.2553V19.9881C11.1132 21.7284 12.498 23.1441 14.2002 23.1441C15.9025 23.1441 17.2872 21.7284 17.2872 19.9881V15.7801Z" fill="white"/>
<path d="M1.23477 19.9882C1.23477 27.2971 7.05096 33.2434 14.2002 33.2434C14.5413 33.2434 14.8176 33.5261 14.8176 33.8747C14.8176 34.2233 14.5413 34.5059 14.2002 34.5059C6.37018 34.5059 0 27.9933 0 19.9882V15.7802C0 15.4316 0.276425 15.149 0.617385 15.149C0.958345 15.149 1.23477 15.4316 1.23477 15.7802V19.9882Z" fill="white"/>
<path d="M22.8438 19.3569C22.5027 19.3569 22.2264 19.6395 22.2264 19.9881C22.2264 24.5127 18.6258 28.1938 14.2001 28.1938C9.77448 28.1938 6.17392 24.5128 6.17392 19.9881C6.17392 19.6395 5.8975 19.3569 5.55654 19.3569C5.21558 19.3569 4.93915 19.6395 4.93915 19.9881C4.93915 25.2088 9.09361 29.4561 14.2001 29.4561C19.3067 29.4561 23.4611 25.2088 23.4611 19.9881C23.4612 19.6395 23.1849 19.3569 22.8438 19.3569Z" fill="white"/>
<path fill-rule="evenodd" clip-rule="evenodd" d="M61.4635 18.2831V16.7633C61.4635 14.1759 61.105 11.8535 60.388 9.796C59.671 7.72294 58.6578 5.96162 57.3485 4.51204C56.0548 3.06246 54.5117 1.95579 52.7192 1.19204C50.9267 0.412691 48.9472 0.0230184 46.7806 0.0230184C44.6141 0.0230184 42.6345 0.412691 40.842 1.19204C39.0495 1.95579 37.4986 3.06246 36.1893 4.51204C34.8956 5.96162 33.8903 7.72294 33.1733 9.796C32.4563 11.8535 32.0978 14.1759 32.0978 16.7633V18.2831C32.0978 20.8705 32.4563 23.1929 33.1733 25.2504C33.8903 27.3079 34.9034 29.0614 36.2127 30.511C37.5376 31.9606 39.0963 33.075 40.8888 33.8544C42.6813 34.6181 44.6608 35 46.8274 35C48.994 35 50.9657 34.6181 52.7426 33.8544C54.5351 33.075 56.0782 31.9606 57.3719 30.511C58.6812 29.0614 59.6866 27.3079 60.388 25.2504C61.105 23.1929 61.4635 20.8705 61.4635 18.2831ZM53.7714 16.7166V18.2831C53.7714 19.9976 53.6155 21.5251 53.3037 22.8656C53.0076 24.1905 52.5634 25.3127 51.9711 26.2324C51.3788 27.152 50.6462 27.8456 49.7733 28.3132C48.916 28.7808 47.9341 29.0146 46.8274 29.0146C45.674 29.0146 44.6608 28.7808 43.788 28.3132C42.9307 27.8456 42.2059 27.152 41.6136 26.2324C41.0213 25.3127 40.5693 24.1905 40.2575 22.8656C39.9614 21.5251 39.8133 19.9976 39.8133 18.2831V16.7166C39.8133 14.9864 39.9614 13.4589 40.2575 12.134C40.5693 10.7936 41.0135 9.6713 41.5902 8.76726C42.1825 7.86322 42.9073 7.18519 43.7646 6.73317C44.6219 6.26557 45.6272 6.03176 46.7806 6.03176C47.8873 6.03176 48.8771 6.26557 49.7499 6.73317C50.6228 7.18519 51.3554 7.86322 51.9477 8.76726C52.54 9.6713 52.992 10.7936 53.3037 12.134C53.6155 13.4589 53.7714 14.9864 53.7714 16.7166Z" fill="white"/>
<path d="M70.1376 34.5324L63.9184 9.23487H70.9559L73.8606 25.1491L78.1804 9.23487H83.3475L87.671 24.933L90.572 9.23487H97.6095L91.4371 34.5324H85.2647L80.7822 18.8865L76.2632 34.5324H70.1376Z" fill="white"/>
<path d="M107.897 16.6075V34.5324H100.579V9.23487H107.453L107.696 12.1986C107.732 12.1533 107.767 12.1084 107.803 12.0639C108.676 10.9884 109.713 10.1701 110.913 9.60896C112.129 9.04783 113.469 8.76726 114.934 8.76726C116.119 8.76726 117.202 8.93872 118.184 9.28163C119.166 9.62454 120.008 10.1779 120.709 10.9416C121.426 11.6898 121.972 12.6874 122.346 13.9343C122.72 15.1657 122.907 16.6854 122.907 18.4935V34.5324H115.566V18.4701C115.566 17.4102 115.418 16.5919 115.121 16.0152C114.825 15.4385 114.389 15.0332 113.812 14.7994C113.251 14.5656 112.565 14.4487 111.755 14.4487C110.897 14.4487 110.165 14.6201 109.557 14.9631C108.949 15.2904 108.45 15.7502 108.06 16.3425C108.004 16.4287 107.949 16.517 107.897 16.6075Z" fill="white"/>
<path d="M134.995 18.2089V34.5324H127.7V9.23487H134.55L134.791 12.4253C134.872 12.2779 134.955 12.134 135.041 11.9938C135.665 10.965 136.429 10.1701 137.333 9.60896C138.237 9.04783 139.265 8.76726 140.419 8.76726C140.793 8.76726 141.175 8.79064 141.565 8.8374C141.954 8.88417 142.282 8.95431 142.546 9.04783L142.43 15.8515C142.118 15.8047 141.713 15.7658 141.214 15.7346C140.715 15.6878 140.286 15.6645 139.928 15.6645C138.993 15.6645 138.182 15.7814 137.496 16.0152C136.826 16.2334 136.265 16.5607 135.813 16.9971C135.475 17.3355 135.202 17.7394 134.995 18.2089Z" fill="white"/>
</svg>
