<svg width="371" height="113" viewBox="0 0 371 113" fill="none" xmlns="http://www.w3.org/2000/svg">
<path d="M58.3238 60.4468C57.5047 60.4468 56.841 61.1255 56.841 61.9627V72.0691C56.841 76.2487 53.5152 79.6489 49.427 79.6489C45.3387 79.6489 42.013 76.2487 42.013 72.0691V55.8989C42.013 53.391 44.0084 51.3509 46.4614 51.3509C48.9143 51.3509 50.9099 53.391 50.9099 55.8989V72.0691C50.9099 72.9052 50.2448 73.585 49.4272 73.585C48.6094 73.585 47.9444 72.905 47.9444 72.0691V55.8989C47.9444 55.0617 47.2807 54.383 46.4616 54.383C45.6427 54.383 44.9788 55.0617 44.9788 55.8989V72.0691C44.9788 74.5769 46.9745 76.617 49.4273 76.617C51.8802 76.617 53.8758 74.5769 53.8758 72.0691V55.8989C53.8758 51.7192 50.55 48.3191 46.4618 48.3191C42.3736 48.3191 39.0478 51.7192 39.0478 55.8989V72.0691C39.0478 77.9205 43.7041 82.6809 49.4275 82.6809C55.1508 82.6809 59.8071 77.9205 59.8071 72.0691V61.9627C59.8065 61.1255 59.1428 60.4468 58.3238 60.4468Z" fill="black"/>
<path d="M46.4613 36.1916C35.8322 36.1916 27.1847 45.0323 27.1847 55.8998L27.1909 66.5129C27.1913 67.3499 27.855 68.0281 28.6737 68.0281C29.4935 68.0277 30.1568 67.3486 30.1564 66.5112L30.1503 55.8989C30.1503 46.7039 37.4672 39.2234 46.4611 39.2234C55.4548 39.2234 62.7719 46.7039 62.7719 55.8989V72.0691C62.7719 79.5923 56.7853 85.7127 49.4266 85.7127C42.0679 85.7127 36.0813 79.5923 36.0813 72.0691V55.8989C36.0813 50.0475 40.7376 45.2873 46.4609 45.2873C52.1842 45.2873 56.8404 50.0477 56.8404 55.8989C56.8404 56.7361 57.5042 57.4148 58.3232 57.4148C59.1423 57.4148 59.806 56.7361 59.806 55.8989C59.806 48.3757 53.8194 42.2552 46.4607 42.2552C39.102 42.2552 33.1154 48.3757 33.1154 55.8989V72.0691C33.1154 81.2641 40.4324 88.7446 49.4262 88.7446C58.4199 88.7446 65.7371 81.2641 65.7371 72.0691V55.8989C65.7378 45.0321 57.0904 36.1916 46.4613 36.1916Z" fill="black"/>
<path d="M73.1518 68.1277C75.6046 68.1277 77.6003 66.0876 77.6003 63.5798V55.8989C77.6003 38.3448 63.6314 24.0639 46.4614 24.0639C29.2915 24.0639 15.3224 38.345 15.3224 55.8989C15.3224 56.7361 15.9863 57.4148 16.8052 57.4148C17.6241 57.4148 18.288 56.7361 18.288 55.8989C18.288 40.0166 30.9263 27.0957 46.4613 27.0957C61.9962 27.0957 74.6345 40.0166 74.6345 55.8989V63.5798C74.6345 64.4159 73.9694 65.0957 73.1518 65.0957C72.334 65.0957 71.669 64.4157 71.669 63.5798V55.8989C71.669 41.6886 60.361 30.1275 46.4613 30.1275C32.5615 30.1275 21.2535 41.6884 21.2535 55.8989V72.0691C21.2535 87.9514 33.8918 100.872 49.4268 100.872C64.9617 100.872 77.6001 87.9514 77.6001 72.0691C77.6001 71.2319 76.9364 70.5532 76.1173 70.5532C75.2983 70.5532 74.6345 71.2319 74.6345 72.0691C74.6345 86.2796 63.3265 97.8405 49.4268 97.8405C35.5271 97.8405 24.219 86.2796 24.219 72.0691V55.8989C24.219 43.3604 34.1968 33.1596 46.4611 33.1596C58.7252 33.1596 68.7031 43.3604 68.7031 55.8989V63.5798C68.7033 66.0876 70.699 68.1277 73.1518 68.1277Z" fill="black"/>
<path d="M49.4268 103.904C32.2566 103.904 18.288 89.6231 18.288 72.0693V61.9629C18.288 61.1257 17.6241 60.447 16.8052 60.447C15.9863 60.447 15.3224 61.1257 15.3224 61.9629V72.0693C15.3224 91.2951 30.6216 106.936 49.427 106.936C50.2461 106.936 50.9098 106.258 50.9098 105.42C50.9098 104.583 50.2461 103.904 49.4268 103.904Z" fill="black"/>
<path d="M70.1861 70.5532C69.367 70.5532 68.7033 71.2319 68.7033 72.0691C68.7033 82.9358 60.0559 91.7766 49.4268 91.7766C38.7977 91.7766 30.1503 82.936 30.1503 72.0691C30.1503 71.2319 29.4864 70.5532 28.6675 70.5532C27.8486 70.5532 27.1847 71.2319 27.1847 72.0691C27.1847 84.6076 37.1625 94.8084 49.4268 94.8084C61.6911 94.8084 71.6688 84.6076 71.6688 72.0691C71.669 71.2319 71.0053 70.5532 70.1861 70.5532Z" fill="black"/>
<path d="M162.939 64.3242V67.9741C162.939 74.1883 162.078 79.7661 160.356 84.7075C158.671 89.6489 156.257 93.8604 153.112 97.3418C150.005 100.823 146.299 103.5 141.994 105.372C137.726 107.206 132.991 108.123 127.787 108.123C122.584 108.123 117.83 107.206 113.525 105.372C109.22 103.5 105.476 100.823 102.294 97.3418C99.1497 93.8604 96.7164 89.6489 94.9944 84.7075C93.2724 79.7661 92.4114 74.1883 92.4114 67.9741V64.3242C92.4114 58.11 93.2724 52.5322 94.9944 47.5908C96.7164 42.612 99.1309 38.3818 102.238 34.9004C105.383 31.4189 109.107 28.7611 113.412 26.9268C117.717 25.055 122.472 24.1191 127.675 24.1191C132.878 24.1191 137.633 25.055 141.938 26.9268C146.243 28.7611 149.949 31.4189 153.056 34.9004C156.2 38.3818 158.634 42.612 160.356 47.5908C162.078 52.5322 162.939 58.11 162.939 64.3242ZM144.465 67.9741V64.2119C144.465 60.0566 144.09 56.388 143.342 53.2061C142.593 49.9867 141.507 47.2913 140.085 45.1201C138.662 42.9489 136.903 41.3205 134.806 40.2349C132.71 39.1118 130.333 38.5503 127.675 38.5503C124.905 38.5503 122.49 39.1118 120.431 40.2349C118.372 41.3205 116.632 42.9489 115.209 45.1201C113.824 47.2913 112.757 49.9867 112.009 53.2061C111.297 56.388 110.942 60.0566 110.942 64.2119V67.9741C110.942 72.092 111.297 75.7606 112.009 78.98C112.757 82.1619 113.843 84.8573 115.265 87.0659C116.688 89.2746 118.429 90.9404 120.488 92.0635C122.584 93.1865 125.017 93.748 127.787 93.748C130.445 93.748 132.804 93.1865 134.863 92.0635C136.959 90.9404 138.718 89.2746 140.141 87.0659C141.563 84.8573 142.63 82.1619 143.342 78.98C144.09 75.7606 144.465 72.092 144.465 67.9741ZM191.183 90.0981L203.088 46.2432H214.15L210.387 65.7842L198.483 107H189.443L191.183 90.0981ZM185.737 46.2432L193.71 89.9297L194.552 107H183.771L168.835 46.2432H185.737ZM224.931 89.0874L232.848 46.2432H249.75L234.926 107H224.145L224.931 89.0874ZM215.497 46.2432L227.514 89.8735L229.255 107H220.102L208.31 65.8403L204.716 46.2432H215.497ZM274.457 59.2144V107H256.882V46.2432H273.39L274.457 59.2144ZM272.155 74.4878L267.775 74.6001C267.775 70.033 268.337 65.9339 269.46 62.3027C270.583 58.6715 272.174 55.5832 274.233 53.0376C276.329 50.4546 278.818 48.4893 281.701 47.1416C284.621 45.7939 287.84 45.1201 291.359 45.1201C294.204 45.1201 296.806 45.5319 299.164 46.3555C301.523 47.179 303.544 48.508 305.229 50.3423C306.951 52.1392 308.261 54.535 309.159 57.5298C310.058 60.4871 310.507 64.137 310.507 68.4795V107H292.875V68.4233C292.875 65.8778 292.52 63.9124 291.808 62.5273C291.097 61.1423 290.049 60.1689 288.664 59.6074C287.316 59.0459 285.669 58.7651 283.722 58.7651C281.663 58.7651 279.904 59.1769 278.444 60.0005C276.984 60.7866 275.786 61.891 274.85 63.3135C273.914 64.736 273.222 66.4019 272.773 68.311C272.361 70.2202 272.155 72.2791 272.155 74.4878ZM339.538 60.3936V107H322.018V46.2432H338.471L339.538 60.3936ZM357.675 45.7939L357.394 62.1343C356.646 62.022 355.672 61.9284 354.474 61.8535C353.276 61.7412 352.247 61.6851 351.386 61.6851C349.14 61.6851 347.193 61.9658 345.546 62.5273C343.936 63.0514 342.589 63.8376 341.503 64.8857C340.455 65.9339 339.669 67.2441 339.145 68.8164C338.621 70.3512 338.359 72.1294 338.359 74.1509L335.046 72.5225C335.046 68.5169 335.439 64.8483 336.225 61.5166C337.011 58.1849 338.153 55.3024 339.65 52.8691C341.148 50.3984 342.982 48.4893 345.153 47.1416C347.324 45.7939 349.795 45.1201 352.565 45.1201C353.464 45.1201 354.381 45.1763 355.317 45.2886C356.253 45.4009 357.039 45.5693 357.675 45.7939Z" fill="black"/>
</svg>
