<svg width="130" viewBox="0 0 500 165" fill="none" xmlns="http://www.w3.org/2000/svg">
<path d="M11.7754 106.331V59.6113H0V35.708H11.7754V10.5128H39.731V35.708H62.9001V59.6113H39.731V101.75C39.731 108.181 42.4913 111.323 48.7461 111.323C53.885 111.323 58.4953 110.031 62.5477 107.829V130.264C56.6453 133.758 49.862 135.961 40.4651 135.961C23.3746 135.961 11.7754 129.148 11.7754 106.331Z" fill="black"/>
<path d="M208.375 0H236.331V71.5628L269.073 35.6786H302.549L265.02 74.4993L303.841 134.287H271.833L246.08 93.9978L236.331 104.305V134.287H208.375V0Z" fill="black"/>
<path d="M300.552 85.5407V85.159C300.552 56.9978 320.609 33.8287 349.298 33.8287C382.217 33.8287 397.31 59.4058 397.31 87.3614C397.31 89.5638 397.134 92.1479 396.929 94.7027H328.302C331.063 107.388 339.901 114.025 352.411 114.025C361.808 114.025 368.591 111.088 376.314 103.894L392.318 118.048C383.127 129.442 369.883 136.46 352.029 136.46C322.459 136.519 300.552 115.728 300.552 85.5407ZM370.118 77.2598C368.474 64.7502 361.103 56.2931 349.328 56.2931C337.728 56.2931 330.182 64.574 327.979 77.2598H370.118Z" fill="black"/>
<path d="M404.886 157.485L414.283 137.253C417.954 139.455 422.564 141.129 426.235 141.129C431.021 141.129 433.606 139.661 435.984 134.698L397.34 35.7081H426.969L449.404 102.866L470.929 35.7081H500L462.09 136.724C454.543 156.78 446.467 164.327 429.7 164.327C419.598 164.298 412.052 161.714 404.886 157.485Z" fill="black"/>
<path d="M134.375 38.028C134.404 37.1764 134.492 36.2955 134.433 35.4439C134.345 34.0637 133.699 33.4177 132.349 33.5058C130.029 33.682 127.709 33.8582 125.448 34.328C121.307 35.1796 117.284 36.4717 113.467 38.2629C108.122 40.7883 103.248 44.0185 98.9016 48.0415C95.6128 51.1249 92.9112 54.7074 90.6207 58.5836C88.8588 61.5788 87.4492 64.7503 86.304 68.0392C85.4231 70.6233 84.7477 73.2368 84.1897 75.909C83.485 79.2567 83.1326 82.6336 83.1326 86.04C83.1326 90.5622 83.8667 95.0257 85.1294 99.4011C85.8342 101.809 86.8913 102.69 89.358 102.69C92.6469 102.69 95.9358 102.69 99.254 102.69C102.807 102.69 106.36 102.719 109.914 102.69C111.852 102.661 112.351 101.809 111.441 100.135C111.294 99.8416 111.118 99.548 110.941 99.2543C108.974 96.0535 107.741 92.5297 107.359 88.8591C106.83 83.4559 107.564 78.2289 109.943 73.2368C113.232 66.3654 118.459 61.7257 125.565 59.0828C127.709 58.29 129.941 57.8495 132.202 57.5265C133.787 57.2915 134.639 56.4106 134.639 55.0598C134.61 54.1201 134.492 53.2098 134.433 52.2701C134.14 47.513 134.14 42.7558 134.375 38.028Z" fill="black"/>
<path d="M167.235 67.8629C164.621 67.951 161.978 67.6867 159.394 68.0685C158.161 68.2447 157.896 68.6558 158.366 69.801C158.954 71.1518 159.57 72.4439 160.246 73.7359C162.595 78.3169 163.065 83.2209 162.683 88.2717C162.477 90.8264 161.831 93.2638 160.833 95.6423C158.836 100.37 155.753 104.246 151.73 107.418C148 110.354 143.713 112.057 139.132 112.968C136.519 113.496 135.99 113.937 136.019 116.638C136.049 119.78 136.166 122.923 136.166 126.065C136.166 128.619 136.019 131.145 136.019 133.7C135.99 136.284 136.665 136.93 139.191 136.871C143.155 136.783 146.973 135.931 150.702 134.669C157.368 132.466 163.505 129.265 168.908 124.743C173.989 120.515 177.923 115.405 180.889 109.591C184.237 103.865 185.735 97.6979 186.381 92.7646C186.733 90.3273 186.909 87.8606 186.88 85.3645C186.88 80.3431 186.263 75.4685 184.854 70.6526C184.296 68.7145 183.209 67.9217 181.154 67.8923" fill="black"/>
<path d="M114.7 136.195C121.496 136.195 127.004 130.687 127.004 123.891C127.004 117.096 121.496 111.588 114.7 111.588C107.905 111.588 102.396 117.096 102.396 123.891C102.396 130.687 107.905 136.195 114.7 136.195Z" fill="black"/>
<path d="M152.816 58.1429C159.255 58.1429 164.474 52.9235 164.474 46.485C164.474 40.0465 159.255 34.827 152.816 34.827C146.378 34.827 141.158 40.0465 141.158 46.485C141.158 52.9235 146.378 58.1429 152.816 58.1429Z" fill="black"/>
</svg>
