<svg width="451" height="131" viewBox="0 0 451 131" fill="none" xmlns="http://www.w3.org/2000/svg">
<path d="M48.4615 26.1766C51.421 27.0552 54.4268 27.6563 57.4787 28.0725C58.2648 28.165 59.0509 28.2575 59.7908 28.35C59.8371 28.0725 59.8833 27.7488 59.9295 27.4714C60.2532 25.483 60.6232 23.4483 60.9469 21.4599C61.6867 16.9744 62.4729 12.4427 63.9064 8.14224C64.1838 7.35612 64.4613 6.57001 64.7387 5.7839C62.889 5.50645 60.9931 5.32148 59.1434 5.229C58.681 5.18275 58.2186 5.18275 57.8024 5.18275C57.4787 7.7723 56.8313 10.3156 55.9065 12.7202C54.6117 16.1883 52.947 19.5177 50.9124 22.6622C50.1725 23.8182 49.3401 24.9743 48.4615 26.1766Z" fill="white"/>
<path d="M58.866 36.766C58.9584 35.3325 59.0509 33.899 59.2359 32.4655C57.2012 32.2805 55.2128 31.9568 53.2244 31.5869C50.6811 31.1245 48.1378 30.4771 45.687 29.691C45.2246 30.2459 44.7159 30.8008 44.2073 31.3557C40.9241 34.9625 37.2247 38.1532 33.1555 40.8353C31.9994 41.6214 30.7971 42.3613 29.5486 43.0549C30.2885 46.3843 30.5659 49.8987 30.2885 53.2743C30.196 54.6616 30.011 56.0951 29.7335 57.4824C30.4272 57.3899 31.0746 57.2974 31.7682 57.2049C41.1553 55.9101 50.4499 54.1067 59.6058 51.7021C58.866 46.7542 58.5885 41.7601 58.866 36.766Z" fill="white"/>
<path d="M25.6642 69.6902C25.3868 70.3376 25.0631 70.9388 24.7856 71.5399C26.0804 72.0023 27.3752 72.511 28.6237 73.1121C32.878 75.1005 36.8548 77.7363 40.2767 80.927C40.3692 81.0195 40.5079 81.112 40.6004 81.2045C46.6581 73.2046 52.4845 64.9736 57.7561 56.465C48.1841 58.8234 38.5195 60.5806 28.7162 61.7366C27.8839 64.4649 26.8665 67.1007 25.6642 69.6902Z" fill="white"/>
<path d="M63.9526 28.6274C66.7271 28.7199 69.5478 28.6736 72.3224 28.4424C73.5247 25.5292 74.6345 22.616 75.698 19.6102C76.8078 16.3271 77.8714 12.9976 78.565 9.57574C78.1488 9.39077 77.6864 9.2058 77.2702 9.02084C74.5882 7.95727 71.8137 7.07868 68.9467 6.43129C67.3745 10.3156 66.4496 14.4774 65.6635 18.5929C65.2936 20.5813 64.9699 22.616 64.6462 24.6044C64.415 25.9916 64.1838 27.2864 63.9526 28.6274Z" fill="white"/>
<path d="M66.1259 32.8354C65.2011 32.8354 64.3225 32.7892 63.3976 32.7429C62.889 37.5521 62.7965 42.3613 63.2589 47.1242C65.8947 42.4075 68.2993 37.5983 70.5189 32.6967C69.0392 32.7892 67.5594 32.8354 66.1259 32.8354Z" fill="white"/>
<path d="M77.039 27.8413C81.4782 27.0552 85.825 25.8066 90.033 24.0495C92.0676 23.1709 94.056 22.1998 95.9519 21.1362C93.5474 18.7779 90.9116 16.6045 88.0446 14.7086C86.2874 13.5063 84.4377 12.4427 82.4493 11.4254C81.247 16.7895 79.3973 22.0148 77.3627 27.1477C77.224 27.3326 77.1315 27.6101 77.039 27.8413Z" fill="white"/>
<path d="M78.2413 31.8181C77.224 32.0031 76.2067 32.1418 75.1894 32.2805C73.8021 35.5637 72.2761 38.8006 70.7039 41.9913C69.3629 44.6271 67.9756 47.2167 66.5421 49.76C74.2183 47.4941 81.7557 44.8583 89.1544 41.7601C94.7959 39.3555 100.299 36.7197 105.709 33.8065C105.385 33.2516 105.062 32.6967 104.738 32.188C103.073 29.4598 101.131 26.7777 98.8652 24.2344C96.8768 25.3905 94.7959 26.454 92.6688 27.3789C88.0446 29.4135 83.2354 30.9857 78.2413 31.8181Z" fill="white"/>
<path d="M64.415 54.7078C65.2473 58.361 66.3571 61.9216 67.7906 65.3897C69.779 70.0602 72.3224 74.4531 75.3743 78.5224C75.513 78.7074 75.698 78.9386 75.8367 79.1236C78.2413 75.2393 81.0621 71.5861 84.1603 68.2105C88.0446 64.0025 92.3913 60.2106 97.1543 57.0662C101.732 54.0605 106.634 51.5634 111.767 49.6212C111.351 47.8178 110.888 46.0144 110.287 44.2572C109.547 41.9913 108.622 39.7255 107.605 37.5521C104.276 39.3555 100.946 41.0202 97.5242 42.5925C86.8423 47.5404 75.7442 51.5634 64.415 54.7078Z" fill="white"/>
<path d="M112.553 53.7368C111.905 53.968 111.212 54.2454 110.564 54.5229C105.247 56.7887 100.252 59.702 95.6745 63.1701C91.0503 66.777 86.9348 70.9388 83.3279 75.5629C81.6632 77.7363 80.1372 80.0022 78.7037 82.3605C81.7557 85.6437 85.1314 88.6494 88.692 91.4239C92.0676 94.0135 95.582 96.418 99.0964 98.7764C101.27 96.3256 103.212 93.6898 104.923 90.9153C107.004 87.5396 108.761 83.794 110.148 79.771C111.397 76.0716 112.322 72.0486 112.784 67.7943C113.293 63.2164 113.2 58.4534 112.553 53.7368Z" fill="white"/>
<path d="M66.3109 71.9098C64.1837 67.7481 62.4266 63.3551 61.178 58.8234C55.7215 67.5631 49.71 75.9791 43.5136 84.1639C44.346 85.0888 45.1783 86.0598 45.9644 87.0772C47.7216 89.2968 49.3863 91.6551 50.8661 94.1059C52.3921 96.6493 53.7331 99.3313 54.8891 102.06C57.1087 101.505 59.3746 101.088 61.6404 100.903C62.7502 100.811 63.8601 100.765 64.9699 100.765C65.6172 100.765 66.2646 100.765 66.8658 100.811C67.3282 98.7301 67.8831 96.6955 68.5305 94.6608C69.8715 90.5916 71.5825 86.661 73.6171 82.9154C70.7963 79.4935 68.3455 75.8404 66.3109 71.9098Z" fill="white"/>
<path d="M66.0797 104.927C65.7098 104.927 65.3861 104.927 65.0162 104.927C63.3977 104.927 61.8255 105.019 60.207 105.25C58.9122 105.435 57.6637 105.666 56.4152 105.99C56.7851 106.961 57.1088 107.932 57.4325 108.903C58.4036 111.909 59.1897 115.007 59.8833 118.106C61.8717 117.967 63.9063 117.736 65.9872 117.412C65.8485 116.857 65.756 116.348 65.6635 115.793C65.3398 113.435 65.3398 111.077 65.5711 108.672C65.6635 107.377 65.8485 106.175 66.0797 104.927Z" fill="white"/>
<path d="M89.0157 96.8342C84.6227 93.5973 80.3685 90.1754 76.5766 86.1986C75.7905 87.7246 75.0506 89.2968 74.357 90.869C72.9697 94.2447 71.8599 97.7128 71.0276 101.273C73.3859 101.69 75.6518 102.383 77.8714 103.216C80.5534 104.279 83.1892 105.528 85.6863 107.054C86.4724 107.516 87.2585 108.025 88.0446 108.533C88.0909 108.487 88.1833 108.441 88.2296 108.395C91.0966 106.453 93.7786 104.279 96.2294 101.828C96.137 101.736 95.9982 101.69 95.9057 101.597C93.5474 100.117 91.2353 98.4989 89.0157 96.8342Z" fill="white"/>
<path d="M70.1952 105.343C70.0565 106.129 69.9178 106.869 69.8253 107.655C69.5478 110.059 69.4091 112.464 69.6866 114.869C69.7791 115.423 69.8715 115.978 70.0103 116.533C74.8657 115.331 79.6286 113.481 84.0678 110.984C81.9869 109.736 79.8598 108.58 77.6402 107.609C75.2356 106.638 72.7385 105.851 70.1952 105.343Z" fill="white"/>
<path d="M31.9994 92.3488L31.9531 92.395C31.8606 92.5337 31.7681 92.6262 31.6757 92.7649C31.8144 92.6262 31.9069 92.4875 31.9994 92.3488Z" fill="white"/>
<path d="M37.5021 85.1813C37.6871 84.95 37.8258 84.7651 38.0108 84.5339C36.9472 83.5165 35.8374 82.5455 34.6351 81.6206C31.8144 79.4935 28.8087 77.7363 25.5717 76.3028C24.6469 75.9329 23.7221 75.5629 22.751 75.2392C21.04 78.245 19.1904 81.1582 17.1557 83.979C14.8436 87.2621 12.3466 90.4066 9.84949 93.551C10.4506 94.4296 11.1443 95.3545 11.8841 96.3256C14.2887 99.4238 17.017 102.291 20.0227 104.834C20.2539 105.019 20.4389 105.204 20.6701 105.389C24.7856 101.412 28.4387 96.9267 31.9069 92.395C33.849 89.9904 35.6525 87.5858 37.5021 85.1813Z" fill="white"/>
<path d="M50.8661 103.262C48.8314 98.6839 46.2881 94.3372 43.2362 90.3604C42.4963 89.3893 41.7102 88.4644 40.8778 87.5396C40.4617 88.0483 40.0917 88.5569 39.6755 89.0656C35.3288 94.7071 31.1208 100.487 26.2191 105.666C25.4793 106.406 24.7856 107.192 24.0458 107.886C25.9879 109.273 28.0688 110.522 30.1497 111.632C31.4907 112.325 32.878 113.019 34.2652 113.62C34.3115 113.574 34.3577 113.574 34.3577 113.528C35.6987 112.279 37.1322 111.077 38.5657 109.967C40.5541 108.395 42.635 107.007 44.9009 105.805C46.8893 104.88 48.8314 104.002 50.8661 103.262Z" fill="white"/>
<path d="M50.1725 107.979C47.1205 109.32 44.2535 110.938 41.5715 112.973C40.6004 113.713 39.6293 114.499 38.7045 115.331C39.6293 115.655 40.5541 115.932 41.479 116.163C45.3171 117.227 49.3864 117.874 53.6406 118.105C54.288 118.152 54.9354 118.152 55.629 118.152C54.7504 114.406 53.7331 110.707 52.4383 107.1C51.6522 107.377 50.9123 107.701 50.1725 107.979Z" fill="white"/>
<path d="M16.4621 58.7309C18.1731 58.5922 19.884 58.4534 21.5487 58.3147C22.8435 58.2222 24.1383 58.0835 25.3868 57.9448C25.618 56.9737 25.803 55.9564 25.9417 54.9853C26.2654 52.1646 26.3116 49.39 25.9417 46.5693C25.8492 46.0606 25.803 45.552 25.6643 45.0433C22.8435 46.4306 19.884 47.5404 16.8783 48.4652C11.7454 49.9912 6.38139 50.8698 1.06357 50.8698C0.462421 53.8755 0.0924838 56.9275 0 59.9794C3.83808 59.8869 7.67616 59.5633 11.468 59.1933C13.1789 59.0084 14.8437 58.8696 16.4621 58.7309Z" fill="white"/>
<path d="M14.8899 69.1816C16.8783 69.459 18.8205 69.7827 20.7627 70.2914C21.5025 68.8579 22.1499 67.4244 22.7973 65.9446C23.306 64.6961 23.7684 63.4476 24.2308 62.199C23.6297 62.2453 23.0285 62.3378 22.3811 62.384C19.3754 62.6615 16.3697 62.8927 13.364 63.1701C10.3582 63.4476 7.35251 63.7713 4.30054 63.9562C2.91329 64.0487 1.52603 64.0949 0.0925293 64.1412C0.185013 65.9446 0.323738 67.7943 0.60119 69.5977C0.693673 69.5977 0.786157 69.5515 0.832399 69.5515C3.60691 69.0891 6.38143 68.8116 9.20218 68.8116C11.0981 68.8116 12.994 68.9504 14.8899 69.1816Z" fill="white"/>
<path d="M18.6355 74.0832C17.387 73.8058 16.0922 73.5283 14.7974 73.3433C12.9015 73.1121 10.9594 72.9734 9.06344 72.9734C7.12128 72.9734 5.17912 73.1121 3.23696 73.3433C2.58957 73.4358 1.94219 73.5283 1.2948 73.667C1.34104 73.8058 1.34104 73.9907 1.38728 74.1295C2.21964 78.0138 3.6069 81.9443 5.45657 85.9211C6.05772 87.2159 6.75135 88.5107 7.49122 89.8517C8.36981 88.7881 9.20217 87.6783 10.0345 86.6148C13.179 82.5917 16.0922 78.4299 18.6355 74.0832Z" fill="white"/>
<path d="M35.0976 19.7027C37.5946 21.5524 40.2767 23.0784 43.1437 24.2807C43.5598 24.4656 43.9298 24.6044 44.346 24.7431C44.346 24.6968 44.3922 24.6968 44.3922 24.6506C47.1205 21.09 49.4788 17.2519 51.2822 13.0901C52.3458 10.5006 53.1782 7.86479 53.5943 5.09027C53.5019 5.09027 53.4094 5.09027 53.3169 5.09027C49.1089 5.36772 44.9471 6.06135 41.0165 7.2174C37.2247 8.32721 33.4791 9.85319 29.826 11.8416C29.4561 12.0266 29.0861 12.2578 28.7162 12.4427C29.2248 13.3213 29.7797 14.1999 30.4271 15.0323C31.7682 16.8357 33.3404 18.3617 35.0976 19.7027Z" fill="white"/>
<path d="M22.8435 29.1361C24.2308 30.847 25.4793 32.6505 26.4966 34.5926C27.1903 35.9799 27.8376 37.4134 28.3925 38.8469C30.4272 37.6446 32.4156 36.3036 34.3115 34.8701C36.9011 32.8354 39.3056 30.5233 41.5252 28.0725C41.2016 27.9338 40.8779 27.7951 40.6004 27.6563C36.7161 25.9454 33.063 23.6795 29.9648 20.72C28.4388 19.2403 27.0515 17.6218 25.8955 15.8184C25.6643 15.4485 25.4331 15.0785 25.2019 14.6624C23.3984 15.9109 21.595 17.2519 19.8378 18.7779C18.6817 19.749 17.5719 20.8125 16.4159 21.9686C18.7742 24.1882 20.8551 26.639 22.8435 29.1361Z" fill="white"/>
<path d="M21.3637 42.4537C22.4735 41.9913 23.5833 41.4364 24.6931 40.8815C24.4619 40.1879 24.2307 39.4943 23.9533 38.8006C22.936 36.4885 21.6874 34.3152 20.1614 32.2805C18.173 29.7372 16.0459 27.2401 13.6413 25.0668C12.9939 25.8067 12.3466 26.639 11.6529 27.5638C9.24835 30.7083 7.16747 34.1764 5.41027 37.8758C4.06926 40.6965 3.00569 43.656 2.17334 46.6618C3.97677 46.6155 5.78021 46.4768 7.5374 46.2456C12.2541 45.5982 16.9245 44.3034 21.3637 42.4537Z" fill="white"/>
<path d="M143.565 19.5774L143.565 37.0525H160.514V47.301H143.565V77.2583C143.565 81.2877 144.134 84.3975 145.273 86.5871C146.412 88.7767 148.821 89.8719 152.5 89.8719C156.003 89.8719 158.806 89.2587 160.909 88.0324V98.8065C158.631 100.033 155.04 100.734 150.134 100.909C145.404 100.909 141.747 100.186 139.163 98.7407C136.579 97.2954 134.696 95.2808 133.513 92.6967C132.331 90.1126 131.74 86.0614 131.74 80.543V47.3009H118.075V37.0523H131.74V19.5772H143.565L143.565 19.5774ZM205.845 35.4757C215.042 35.4757 222.838 38.6514 229.232 45.0016C235.627 51.3519 238.868 59.0829 238.955 68.1923C238.955 77.3897 235.758 85.0984 229.364 91.3172C222.969 97.536 215.13 100.733 205.845 100.909C196.735 100.909 188.983 97.7554 182.588 91.4486C176.193 85.1418 172.909 77.3897 172.734 68.1923C172.734 59.1703 175.909 51.5055 182.26 45.1987C188.61 38.8919 196.472 35.6512 205.845 35.4757V35.4757ZM185.348 68.1923C185.348 74.5867 187.231 79.7764 190.997 83.7622C194.764 87.7479 199.713 89.7843 205.845 89.8719C212.064 89.8719 217.013 87.8791 220.692 83.8936C224.371 79.9081 226.254 74.6745 226.342 68.1923C226.342 61.7978 224.502 56.6081 220.823 52.6224C217.144 48.6366 212.107 46.6003 205.713 46.5127C199.494 46.5127 194.545 48.5712 190.866 52.6881C187.187 56.805 185.347 61.9729 185.347 68.1923H185.348ZM265.628 0V64.1191L292.563 37.0525H308.987L279.818 65.4331L311.352 99.3321H294.534L265.628 67.0097V99.3321H253.803V0H265.628V0ZM350.507 35.4757C360.054 35.4757 367.479 38.4757 372.778 44.4761C378.077 50.4765 380.771 58.7321 380.858 69.2434V72.5282H330.93C330.93 77.6087 332.966 81.8787 337.039 85.3389C341.112 88.7991 346.084 90.5726 351.952 90.6603C358.434 90.6603 364.128 87.5506 369.033 81.3314L377.968 88.1638C371.311 96.6602 362.113 100.909 350.375 100.909C340.828 100.909 333.141 97.8649 327.316 91.7771C321.492 85.6893 318.491 77.8272 318.316 68.1923C318.316 58.9075 321.316 51.1771 327.316 45.0016C333.317 38.8262 341.047 35.6512 350.507 35.4757ZM368.245 63.068C368.07 57.1991 366.405 52.7097 363.252 49.6004C360.098 46.491 355.763 44.936 350.244 44.936C346.565 44.936 343.259 45.8337 340.324 47.6295C337.389 49.4252 335.09 51.7465 333.426 54.5932C331.762 57.44 330.93 60.265 330.93 63.068H368.245V63.068ZM401.224 37.0525L419.75 85.6674H420.013L437.62 37.0525H450.365L420.933 112.471C418.217 119.742 415.239 124.625 411.998 127.121C408.757 129.618 404.596 130.866 399.516 130.866C395.224 130.866 391.72 130.297 389.005 129.158L390.45 118.515C392.903 119.391 395.268 119.829 397.545 119.829C401.224 119.829 403.874 118.931 405.494 117.136C407.115 115.34 408.538 112.778 409.764 109.449L413.443 99.7263L387.559 37.0525H401.224H401.224Z" fill="white"/>
</svg>
