<svg width="75" height="22" viewBox="0 0 75 22" fill="none" xmlns="http://www.w3.org/2000/svg">
<path d="M8.07043 4.35924C8.56328 4.50555 9.06383 4.60566 9.57208 4.67497C9.70299 4.69037 9.8339 4.70577 9.95712 4.72117C9.96482 4.67497 9.97252 4.62106 9.98022 4.57486C10.0341 4.24373 10.0957 3.90489 10.1496 3.57376C10.2728 2.82679 10.4038 2.07212 10.6425 1.35595C10.6887 1.22503 10.7349 1.09412 10.7811 0.963208C10.4731 0.917003 10.1573 0.8862 9.84931 0.870799C9.7723 0.863098 9.69529 0.863098 9.62599 0.863098C9.57208 1.29434 9.46427 1.71788 9.31025 2.11832C9.09463 2.69588 8.81741 3.25033 8.47857 3.77398C8.35536 3.9665 8.21675 4.15902 8.07043 4.35924Z" fill="white"/>
<path d="M9.80305 6.1227C9.81845 5.88398 9.83385 5.64526 9.86465 5.40653C9.52582 5.37573 9.19469 5.32183 8.86356 5.26022C8.44002 5.18321 8.01648 5.0754 7.60834 4.94449C7.53133 5.0369 7.44662 5.12931 7.36191 5.22172C6.81516 5.82237 6.1991 6.35373 5.52143 6.80037C5.32892 6.93128 5.1287 7.05449 4.92078 7.17C5.04399 7.72446 5.09019 8.30971 5.04399 8.87187C5.02859 9.10289 4.99778 9.34161 4.95158 9.57264C5.06709 9.55723 5.1749 9.54183 5.29041 9.52643C6.85366 9.31081 8.40151 9.01048 9.92626 8.61004C9.80305 7.78606 9.75684 6.95438 9.80305 6.1227Z" fill="white"/>
<path d="M4.27388 11.6056C4.22767 11.7135 4.17377 11.8136 4.12756 11.9137C4.34318 11.9907 4.55881 12.0754 4.76673 12.1755C5.47519 12.5066 6.13746 12.9456 6.70731 13.4769C6.72271 13.4923 6.74582 13.5077 6.76122 13.5231C7.77002 12.1909 8.74031 10.8202 9.6182 9.40323C8.02414 9.79597 6.41469 10.0886 4.78213 10.2811C4.64351 10.7355 4.4741 11.1744 4.27388 11.6056Z" fill="white"/>
<path d="M10.6501 4.76737C11.1122 4.78277 11.5819 4.77507 12.044 4.73657C12.2442 4.25142 12.429 3.76628 12.6061 3.26573C12.791 2.71897 12.9681 2.16452 13.0836 1.59467C13.0143 1.56386 12.9373 1.53306 12.868 1.50226C12.4213 1.32514 11.9593 1.17882 11.4818 1.07101C11.22 1.71788 11.066 2.41094 10.9351 3.09631C10.8735 3.42744 10.8196 3.76628 10.7657 4.09741C10.7272 4.32843 10.6887 4.54405 10.6501 4.76737Z" fill="white"/>
<path d="M11.012 5.46814C10.858 5.46814 10.7117 5.46044 10.5577 5.45274C10.473 6.25362 10.4576 7.05449 10.5346 7.84767C10.9735 7.0622 11.3739 6.26132 11.7436 5.44504C11.4972 5.46044 11.2507 5.46814 11.012 5.46814Z" fill="white"/>
<path d="M12.8295 4.63644C13.5687 4.50553 14.2926 4.29761 14.9934 4.00498C15.3322 3.85867 15.6633 3.69695 15.9791 3.51984C15.5786 3.1271 15.1397 2.76516 14.6622 2.44943C14.3696 2.24921 14.0616 2.0721 13.7305 1.90268C13.5302 2.79597 13.2222 3.66615 12.8834 4.52093C12.8603 4.55174 12.8449 4.59794 12.8295 4.63644Z" fill="white"/>
<path d="M13.0297 5.29872C12.8603 5.32952 12.6909 5.35262 12.5215 5.37573C12.2904 5.92248 12.0363 6.46153 11.7745 6.99288C11.5512 7.43183 11.3201 7.86307 11.0814 8.28661C12.3597 7.90927 13.615 7.47033 14.8471 6.95438C15.7866 6.55394 16.703 6.115 17.604 5.62985C17.5501 5.53744 17.4961 5.44503 17.4422 5.36033C17.165 4.90598 16.8416 4.45934 16.4642 4.0358C16.1331 4.22832 15.7866 4.40543 15.4323 4.55945C14.6623 4.89828 13.8614 5.16011 13.0297 5.29872Z" fill="white"/>
<path d="M10.7272 9.11058C10.8658 9.71894 11.0506 10.3119 11.2893 10.8895C11.6205 11.6672 12.044 12.3988 12.5523 13.0765C12.5754 13.1073 12.6062 13.1458 12.6293 13.1766C13.0297 12.5297 13.4994 11.9214 14.0154 11.3592C14.6623 10.6584 15.3861 10.027 16.1793 9.50332C16.9417 9.00277 17.758 8.58693 18.6127 8.2635C18.5434 7.96317 18.4664 7.66284 18.3663 7.37021C18.2431 6.99287 18.0891 6.61554 17.9197 6.2536C17.3652 6.55393 16.8108 6.83116 16.2409 7.09298C14.462 7.91696 12.6139 8.58693 10.7272 9.11058Z" fill="white"/>
<path d="M18.7436 8.94888C18.6358 8.98739 18.5203 9.03359 18.4125 9.0798C17.5269 9.45713 16.6952 9.94228 15.9329 10.5198C15.1628 11.1205 14.4774 11.8136 13.8768 12.5836C13.5995 12.9456 13.3454 13.3229 13.1067 13.7156C13.6149 14.2624 14.1771 14.7629 14.7701 15.225C15.3322 15.6562 15.9175 16.0567 16.5027 16.4494C16.8647 16.0413 17.1881 15.6023 17.473 15.1403C17.8195 14.5781 18.1122 13.9544 18.3432 13.2844C18.5511 12.6683 18.7051 11.9984 18.7821 11.2899C18.8669 10.5275 18.8515 9.73436 18.7436 8.94888Z" fill="white"/>
<path d="M11.0429 11.9753C10.6887 11.2822 10.3961 10.5506 10.1881 9.79596C9.27946 11.2514 8.27836 12.6529 7.24646 14.016C7.38507 14.17 7.52369 14.3317 7.6546 14.5011C7.94723 14.8708 8.22446 15.2635 8.47088 15.6716C8.725 16.0952 8.94833 16.5418 9.14084 16.9962C9.51048 16.9037 9.88782 16.8344 10.2652 16.8036C10.45 16.7882 10.6348 16.7805 10.8196 16.7805C10.9274 16.7805 11.0352 16.7805 11.1353 16.7882C11.2123 16.4417 11.3048 16.1029 11.4126 15.764C11.6359 15.0864 11.9208 14.4318 12.2596 13.808C11.7899 13.2382 11.3818 12.6298 11.0429 11.9753Z" fill="white"/>
<path d="M11.0044 17.4736C10.9427 17.4736 10.8888 17.4736 10.8272 17.4736C10.5577 17.4736 10.2959 17.489 10.0264 17.5275C9.81074 17.5583 9.60282 17.5968 9.3949 17.6507C9.4565 17.8124 9.51041 17.9742 9.56431 18.1359C9.72603 18.6364 9.85694 19.1524 9.97245 19.6683C10.3036 19.6452 10.6424 19.6067 10.989 19.5528C10.9659 19.4604 10.9504 19.3757 10.935 19.2833C10.8811 18.8905 10.8811 18.4978 10.9196 18.0974C10.935 17.8817 10.9659 17.6815 11.0044 17.4736Z" fill="white"/>
<path d="M14.824 16.126C14.0924 15.5869 13.3839 15.0171 12.7525 14.3548C12.6215 14.6089 12.4983 14.8707 12.3828 15.1326C12.1518 15.6947 11.967 16.2723 11.8284 16.8652C12.2211 16.9345 12.5984 17.0501 12.9681 17.1887C13.4147 17.3658 13.8537 17.5737 14.2695 17.8278C14.4004 17.9048 14.5313 17.9895 14.6622 18.0743C14.6699 18.0666 14.6853 18.0589 14.693 18.0512C15.1705 17.7277 15.6171 17.3658 16.0253 16.9576C16.0099 16.9422 15.9868 16.9345 15.9714 16.9191C15.5786 16.6727 15.1936 16.4032 14.824 16.126Z" fill="white"/>
<path d="M11.6897 17.5429C11.6666 17.6738 11.6435 17.797 11.6281 17.9279C11.5819 18.3284 11.5588 18.7288 11.605 19.1293C11.6204 19.2217 11.6358 19.3141 11.6589 19.4065C12.4675 19.2063 13.2607 18.8982 14 18.4824C13.6534 18.2745 13.2992 18.082 12.9295 17.9202C12.5291 17.7585 12.1133 17.6276 11.6897 17.5429Z" fill="white"/>
<path d="M5.32893 15.379L5.32123 15.3867C5.30583 15.4098 5.29043 15.4252 5.27502 15.4483C5.29813 15.4252 5.31353 15.4021 5.32893 15.379Z" fill="white"/>
<path d="M6.2453 14.1854C6.27611 14.1469 6.29921 14.1161 6.33001 14.0776C6.1529 13.9082 5.96808 13.7464 5.76786 13.5924C5.29811 13.2382 4.79756 12.9456 4.25851 12.7068C4.1045 12.6452 3.95048 12.5836 3.78877 12.5297C3.50384 13.0303 3.19581 13.5154 2.85698 13.9852C2.47194 14.5319 2.0561 15.0556 1.64026 15.5792C1.74037 15.7255 1.85588 15.8796 1.97909 16.0413C2.37953 16.5572 2.83387 17.0347 3.33442 17.4582C3.37293 17.489 3.40373 17.5198 3.44223 17.5506C4.1276 16.8884 4.73596 16.1414 5.31351 15.3867C5.63695 14.9863 5.93727 14.5858 6.2453 14.1854Z" fill="white"/>
<path d="M8.47083 17.1964C8.13199 16.434 7.70845 15.7101 7.2002 15.0479C7.07699 14.8862 6.94608 14.7321 6.80747 14.5781C6.73816 14.6628 6.67655 14.7475 6.60725 14.8322C5.88338 15.7717 5.18261 16.7343 4.36633 17.5968C4.24312 17.72 4.12761 17.8509 4.00439 17.9665C4.32783 18.1975 4.67436 18.4054 5.02089 18.5902C5.24421 18.7057 5.47524 18.8212 5.70626 18.9213C5.71396 18.9136 5.72166 18.9136 5.72166 18.9059C5.94498 18.698 6.18371 18.4978 6.42243 18.313C6.75356 18.0512 7.10009 17.8201 7.47743 17.6199C7.80856 17.4659 8.13199 17.3196 8.47083 17.1964Z" fill="white"/>
<path d="M8.35534 17.9819C7.84709 18.2052 7.36965 18.4747 6.923 18.8135C6.76129 18.9367 6.59957 19.0677 6.44556 19.2063C6.59957 19.2602 6.75359 19.3064 6.9076 19.3449C7.54676 19.522 8.22443 19.6298 8.9329 19.6683C9.04071 19.676 9.14852 19.676 9.26403 19.676C9.11772 19.0523 8.9483 18.4362 8.73268 17.8355C8.60177 17.8817 8.47856 17.9357 8.35534 17.9819Z" fill="white"/>
<path d="M2.74147 9.78055C3.02639 9.75745 3.31132 9.73434 3.58855 9.71124C3.80417 9.69584 4.01979 9.67274 4.22771 9.64964C4.26621 9.48792 4.29702 9.3185 4.32012 9.15679C4.37402 8.68704 4.38172 8.225 4.32012 7.75525C4.30472 7.67054 4.29702 7.58584 4.27391 7.50113C3.80417 7.73215 3.31132 7.91697 2.81077 8.07098C1.95599 8.32511 1.0627 8.47142 0.177117 8.47142C0.0770077 8.97197 0.0154015 9.48022 0 9.98847C0.639162 9.97307 1.27832 9.91916 1.90979 9.85755C2.19471 9.82675 2.47194 9.80365 2.74147 9.78055Z" fill="white"/>
<path d="M2.47962 11.5209C2.81075 11.5671 3.13418 11.621 3.45761 11.7057C3.58083 11.467 3.68864 11.2283 3.79645 10.9819C3.88116 10.7739 3.95816 10.566 4.03517 10.3581C3.93506 10.3658 3.83495 10.3812 3.72714 10.3889C3.22659 10.4351 2.72604 10.4736 2.2255 10.5198C1.72495 10.566 1.2244 10.6199 0.716149 10.6507C0.485126 10.6661 0.254104 10.6738 0.0153809 10.6815C0.0307824 10.9819 0.0538845 11.2899 0.100089 11.5902C0.11549 11.5902 0.130892 11.5825 0.138593 11.5825C0.600638 11.5055 1.06268 11.4593 1.53243 11.4593C1.84816 11.4593 2.16389 11.4824 2.47962 11.5209Z" fill="white"/>
<path d="M3.10336 12.3372C2.89544 12.291 2.67982 12.2448 2.46419 12.214C2.14846 12.1755 1.82503 12.1524 1.5093 12.1524C1.18587 12.1524 0.862439 12.1755 0.539007 12.214C0.431197 12.2294 0.323387 12.2448 0.215576 12.2679C0.223277 12.291 0.223277 12.3218 0.230977 12.3449C0.369591 12.9918 0.600614 13.6463 0.908643 14.3086C1.00875 14.5242 1.12426 14.7398 1.24748 14.9631C1.39379 14.786 1.5324 14.6012 1.67102 14.4241C2.19467 13.7541 2.67982 13.0611 3.10336 12.3372Z" fill="white"/>
<path d="M5.84481 3.28112C6.26065 3.58915 6.70729 3.84328 7.18474 4.0435C7.25405 4.0743 7.31565 4.0974 7.38496 4.1205C7.38496 4.1128 7.39266 4.1128 7.39266 4.1051C7.847 3.51215 8.23974 2.87298 8.54007 2.17992C8.71719 1.74867 8.8558 1.30973 8.92511 0.847687C8.90971 0.847687 8.89431 0.847687 8.8789 0.847687C8.17814 0.893891 7.48507 1.0094 6.83051 1.20192C6.19904 1.38674 5.57528 1.64086 4.96692 1.972C4.90532 2.0028 4.84371 2.0413 4.7821 2.07211C4.86681 2.21842 4.95922 2.36473 5.06703 2.50335C5.29035 2.80368 5.55218 3.0578 5.84481 3.28112Z" fill="white"/>
<path d="M3.80417 4.85208C4.03519 5.137 4.24311 5.43733 4.41253 5.76076C4.52804 5.99179 4.63585 6.23051 4.72826 6.46923C5.06709 6.26901 5.39822 6.04569 5.71395 5.80697C6.1452 5.46814 6.54563 5.0831 6.91527 4.67496C6.86136 4.65186 6.80746 4.62875 6.76126 4.60565C6.11439 4.32072 5.50603 3.94339 4.99008 3.45054C4.73596 3.20412 4.50494 2.93459 4.31242 2.63426C4.27391 2.57265 4.23541 2.51105 4.19691 2.44174C3.89658 2.64966 3.59625 2.87298 3.30362 3.12711C3.1111 3.28882 2.92628 3.46594 2.73376 3.65846C3.1265 4.0281 3.47304 4.43623 3.80417 4.85208Z" fill="white"/>
<path d="M3.55775 7.06989C3.74257 6.99288 3.92738 6.90047 4.1122 6.80806C4.0737 6.69255 4.03519 6.57704 3.98899 6.46153C3.81957 6.07649 3.61165 5.71456 3.35753 5.37572C3.0264 4.95218 2.67216 4.53634 2.27172 4.17441C2.16391 4.29762 2.0561 4.43623 1.94059 4.59025C1.54015 5.1139 1.19362 5.69146 0.900991 6.30752C0.677669 6.77726 0.500552 7.27011 0.361938 7.77066C0.662268 7.76296 0.962597 7.73985 1.25522 7.70135C2.0407 7.59354 2.81848 7.37792 3.55775 7.06989Z" fill="white"/>
<path d="M23.9081 3.26025L23.9081 6.17041H26.7307V7.87712H23.9081V12.866C23.9081 13.537 24.0029 14.0549 24.1926 14.4195C24.3822 14.7841 24.7833 14.9665 25.396 14.9665C25.9795 14.9665 26.4463 14.8644 26.7964 14.6602V16.4544C26.4171 16.6586 25.819 16.7753 25.0021 16.8045C24.2144 16.8045 23.6054 16.6842 23.1751 16.4435C22.7448 16.2028 22.4311 15.8673 22.2342 15.4369C22.0373 15.0066 21.9388 14.332 21.9388 13.413V7.8771H19.6632V6.17039H21.9388V3.26023H23.9081L23.9081 3.26025ZM34.2797 5.90784C35.8113 5.90784 37.1095 6.43668 38.1745 7.4942C39.2394 8.55173 39.7791 9.83918 39.7936 11.3562C39.7936 12.8878 39.2612 14.1716 38.1963 15.2072C37.1315 16.2428 35.826 16.7753 34.2797 16.8045C32.7626 16.8045 31.4717 16.2794 30.4067 15.2291C29.3418 14.1788 28.7949 12.8878 28.7657 11.3562C28.7657 9.85373 29.2945 8.57731 30.352 7.52702C31.4096 6.47674 32.7189 5.93705 34.2797 5.90784V5.90784ZM30.8662 11.3562C30.8662 12.4211 31.1798 13.2853 31.8071 13.9491C32.4344 14.6128 33.2586 14.9519 34.2796 14.9665C35.3153 14.9665 36.1395 14.6347 36.7522 13.9709C37.3648 13.3072 37.6785 12.4357 37.6931 11.3562C37.6931 10.2913 37.3867 9.42705 36.7741 8.76329C36.1614 8.09954 35.3226 7.76043 34.2578 7.74583C33.2221 7.74583 32.3979 8.08864 31.7852 8.77423C31.1726 9.45983 30.8662 10.3204 30.8662 11.3562H30.8662ZM44.2355 0V10.6779L48.721 6.17041H51.4562L46.5986 10.8967L51.85 16.5419H49.0493L44.2355 11.1593V16.5419H42.2662V0H44.2355V0ZM58.3705 5.90784C59.9605 5.90784 61.1969 6.40742 62.0793 7.40668C62.9618 8.40593 63.4105 9.78076 63.425 11.5312V12.0782H55.1103C55.1103 12.9243 55.4494 13.6354 56.1277 14.2116C56.806 14.7879 57.6339 15.0832 58.6112 15.0978C59.6907 15.0978 60.6388 14.58 61.4557 13.5443L62.9436 14.6821C61.835 16.097 60.3033 16.8045 58.3486 16.8045C56.7587 16.8045 55.4785 16.2976 54.5085 15.2838C53.5386 14.27 53.0389 12.9607 53.0097 11.3562C53.0097 9.80997 53.5093 8.5226 54.5085 7.4942C55.5078 6.4658 56.7951 5.93705 58.3705 5.90784ZM61.3244 10.5028C61.2953 9.52547 61.0181 8.77785 60.493 8.26003C59.9678 7.74222 59.2458 7.48326 58.3268 7.48326C57.7141 7.48326 57.1635 7.63277 56.6748 7.93182C56.186 8.23087 55.8032 8.61744 55.526 9.09151C55.2488 9.56558 55.1103 10.036 55.1103 10.5028H61.3244V10.5028ZM66.8165 6.17041L69.9017 14.2663H69.9455L72.8775 6.17041H75L70.0987 18.73C69.6465 19.9408 69.1505 20.754 68.6108 21.1698C68.0711 21.5855 67.3781 21.7934 66.5321 21.7934C65.8173 21.7934 65.2338 21.6986 64.7816 21.5089L65.0223 19.7366C65.4308 19.8824 65.8246 19.9554 66.2039 19.9554C66.8165 19.9554 67.2578 19.8059 67.5277 19.5068C67.7975 19.2078 68.0346 18.7811 68.2388 18.2268L68.8514 16.6076L64.5409 6.17041H66.8165H66.8165Z" fill="white"/>
</svg>
