<svg width="130" viewBox="0 0 171 56" fill="none" xmlns="http://www.w3.org/2000/svg">
<path d="M4.01 36.21V20.3H0V12.16H4.01V3.58002H13.53V12.16H21.42V20.3H13.53V34.65C13.53 36.84 14.47 37.91 16.6 37.91C18.35 37.91 19.92 37.47 21.3 36.72V44.36C19.29 45.55 16.98 46.3 13.78 46.3C7.96 46.3 4.01 43.98 4.01 36.21Z" fill="white"/>
<path d="M70.96 0H80.48V24.37L91.63 12.15H103.03L90.25 25.37L103.47 45.73H92.57L83.8 32.01L80.48 35.52V45.73H70.96V0Z" fill="white"/>
<path d="M102.35 29.13V29C102.35 19.41 109.18 11.52 118.95 11.52C130.16 11.52 135.3 20.23 135.3 29.75C135.3 30.5 135.24 31.38 135.17 32.25H111.8C112.74 36.57 115.75 38.83 120.01 38.83C123.21 38.83 125.52 37.83 128.15 35.38L133.6 40.2C130.47 44.08 125.96 46.47 119.88 46.47C109.81 46.49 102.35 39.41 102.35 29.13ZM126.04 26.31C125.48 22.05 122.97 19.17 118.96 19.17C115.01 19.17 112.44 21.99 111.69 26.31H126.04Z" fill="white"/>
<path d="M137.88 53.63L141.08 46.74C142.33 47.49 143.9 48.06 145.15 48.06C146.78 48.06 147.66 47.56 148.47 45.87L135.31 12.16H145.4L153.04 35.03L160.37 12.16H170.27L157.36 46.56C154.79 53.39 152.04 55.96 146.33 55.96C142.89 55.95 140.32 55.07 137.88 53.63Z" fill="white"/>
<path d="M45.76 12.95C45.77 12.66 45.8 12.36 45.78 12.07C45.75 11.6 45.53 11.38 45.07 11.41C44.28 11.47 43.49 11.53 42.72 11.69C41.31 11.98 39.94 12.42 38.64 13.03C36.82 13.89 35.16 14.99 33.68 16.36C32.56 17.41 31.64 18.63 30.86 19.95C30.26 20.97 29.78 22.05 29.39 23.17C29.09 24.05 28.86 24.94 28.67 25.85C28.43 26.99 28.31 28.14 28.31 29.3C28.31 30.84 28.56 32.36 28.99 33.85C29.23 34.67 29.59 34.97 30.43 34.97C31.55 34.97 32.67 34.97 33.8 34.97C35.01 34.97 36.22 34.98 37.43 34.97C38.09 34.96 38.26 34.67 37.95 34.1C37.9 34 37.84 33.9 37.78 33.8C37.11 32.71 36.69 31.51 36.56 30.26C36.38 28.42 36.63 26.64 37.44 24.94C38.56 22.6 40.34 21.02 42.76 20.12C43.49 19.85 44.25 19.7 45.02 19.59C45.56 19.51 45.85 19.21 45.85 18.75C45.84 18.43 45.8 18.12 45.78 17.8C45.68 16.18 45.68 14.56 45.76 12.95Z" fill="white"/>
<path d="M56.95 23.11C56.06 23.14 55.16 23.05 54.28 23.18C53.86 23.24 53.77 23.38 53.93 23.77C54.13 24.23 54.34 24.67 54.57 25.11C55.37 26.67 55.53 28.34 55.4 30.06C55.33 30.93 55.11 31.76 54.77 32.57C54.09 34.18 53.04 35.5 51.67 36.58C50.4 37.58 48.94 38.16 47.38 38.47C46.49 38.65 46.31 38.8 46.32 39.72C46.33 40.79 46.37 41.86 46.37 42.93C46.37 43.8 46.32 44.66 46.32 45.53C46.31 46.41 46.54 46.63 47.4 46.61C48.75 46.58 50.05 46.29 51.32 45.86C53.59 45.11 55.68 44.02 57.52 42.48C59.25 41.04 60.59 39.3 61.6 37.32C62.74 35.37 63.25 33.27 63.47 31.59C63.59 30.76 63.65 29.92 63.64 29.07C63.64 27.36 63.43 25.7 62.95 24.06C62.76 23.4 62.39 23.13 61.69 23.12" fill="white"/>
<path d="M39.06 46.38C41.3741 46.38 43.25 44.5041 43.25 42.19C43.25 39.8759 41.3741 38 39.06 38C36.7459 38 34.87 39.8759 34.87 42.19C34.87 44.5041 36.7459 46.38 39.06 46.38Z" fill="white"/>
<path d="M52.04 19.8C54.2326 19.8 56.01 18.0226 56.01 15.83C56.01 13.6374 54.2326 11.86 52.04 11.86C49.8474 11.86 48.07 13.6374 48.07 15.83C48.07 18.0226 49.8474 19.8 52.04 19.8Z" fill="white"/>
</svg>
